<svg width="15" height="16" viewBox="0 0 15 16" fill="none" xmlns="http://www.w3.org/2000/svg">
<path d="M8.29068 15.4064C11.391 15.0592 13.8756 12.5818 14.2292 9.48257C14.6933 5.43025 11.5425 1.98073 7.59296 1.93655V0.118682C7.59296 0.0176901 7.46668 -0.0359621 7.38143 0.0271581L3.63711 2.77604C3.57396 2.82338 3.57396 2.91491 3.63711 2.96225L7.38143 5.71114C7.46668 5.77426 7.59296 5.71745 7.59296 5.61961V3.8049C10.3681 3.84909 12.5907 6.20979 12.4012 9.03126C12.2402 11.4582 10.2607 13.4276 7.8329 13.5822C5.25986 13.7463 3.07199 11.9095 2.6805 9.47941C2.60789 9.0281 2.21325 8.69988 1.75863 8.69988C1.19351 8.69988 0.751512 9.20168 0.839911 9.7603C1.38925 13.2224 4.5874 15.8198 8.29068 15.4064Z" fill="#FFFFFA"/>
</svg>
