<svg width="16" height="16" viewBox="0 0 16 16" fill="none" xmlns="http://www.w3.org/2000/svg">
<path d="M0.426758 9.89233C0.538025 9.73429 0.63631 9.51895 0.800738 9.37719C1.17163 9.0593 1.56848 8.77036 1.96718 8.48565C2.13594 8.36501 2.21444 8.2311 2.17674 8.03083C2.17088 8.00114 2.17088 7.97064 2.17674 7.94095C2.30964 7.31784 2.04383 6.90102 1.49677 6.59459C1.23159 6.4462 1.00225 6.23266 0.763649 6.04386C0.461374 5.80559 0.377924 5.48891 0.567696 5.15714C1.07087 4.28249 1.58599 3.41386 2.11307 2.55127C2.28924 2.26113 2.61377 2.16582 2.94695 2.28767C3.45569 2.47286 3.9533 2.687 4.46512 2.86675C4.57701 2.90596 4.72784 2.86675 4.8527 2.83418C4.93739 2.81246 5.00229 2.71776 5.0876 2.69484C5.69771 2.52775 5.79414 2.06087 5.82938 1.5403C5.85039 1.23085 5.90726 0.923212 5.95671 0.615575C6.01606 0.240982 6.28248 0.0063337 6.67686 0.00392086C7.67579 -0.00130695 8.67513 -0.00130695 9.67488 0.00392086C10.081 0.00392086 10.3412 0.245205 10.3987 0.645133C10.4649 1.10176 10.5285 1.559 10.5947 2.01562C10.6052 2.0856 10.6219 2.15376 10.638 2.22253C10.6954 2.46381 11.6548 2.96508 11.8909 2.87279C12.3675 2.68639 12.841 2.49276 13.3195 2.3112C13.7676 2.14109 14.0656 2.24243 14.3085 2.6496C14.7857 3.44624 15.2596 4.24549 15.7303 5.04736C15.9856 5.48408 15.92 5.79172 15.5195 6.09875C15.1387 6.39372 14.7616 6.68869 14.3722 6.96858C14.2127 7.08319 14.1404 7.20986 14.1719 7.39867C14.1955 7.50722 14.1982 7.6191 14.1799 7.72862C14.0792 8.175 14.272 8.45911 14.651 8.69376C14.96 8.88558 15.2407 9.13048 15.5318 9.35729C15.9027 9.64442 15.9831 9.96653 15.7531 10.361C15.2747 11.1806 14.7907 11.9971 14.3011 12.8107C14.06 13.2106 13.7565 13.3047 13.3046 13.1316C12.8268 12.9506 12.3558 12.7479 11.8743 12.576C11.7704 12.5392 11.627 12.576 11.5139 12.6068C11.4199 12.6351 11.347 12.7377 11.253 12.7618C10.6435 12.9192 10.5656 13.3873 10.5248 13.8928C10.4989 14.2125 10.4457 14.5298 10.3944 14.8471C10.3363 15.206 10.0693 15.4413 9.6928 15.4443C8.68316 15.4515 7.67352 15.4515 6.66388 15.4443C6.26332 15.4413 6.00988 15.1939 5.95115 14.7904C5.87697 14.2837 5.8096 13.7764 5.71687 13.2733C5.69709 13.1672 5.59324 13.0628 5.50423 12.9856C5.41522 12.9084 5.28479 12.9024 5.20937 12.8276C4.81994 12.4427 4.42062 12.5453 3.99038 12.7552C3.6653 12.9048 3.33202 13.0369 2.99207 13.1509C2.58781 13.2975 2.28491 13.1979 2.06918 12.839C1.57466 12.0174 1.0857 11.1931 0.602312 10.3659C0.533079 10.2398 0.50279 10.0986 0.426758 9.89233ZM8.18205 10.3001C8.87936 10.2919 9.54568 10.0177 10.0383 9.53603C10.531 9.05439 10.8108 8.40366 10.8178 7.72319C10.8178 6.32133 9.62543 5.15111 8.18514 5.14266C6.74485 5.13422 5.51845 6.33038 5.5339 7.73646C5.54935 9.14255 6.74671 10.3061 8.18205 10.3007V10.3001Z" fill="#FFFFFA"/>
</svg>
