<svg width="14" height="14" viewBox="0 0 14 14" fill="none" xmlns="http://www.w3.org/2000/svg">
<path d="M7.84 14C7.28 14 6.72 14 6.16 14C6.09778 13.9876 6.04178 13.9689 5.97956 13.9627C4.08178 13.6578 2.54489 12.7493 1.38133 11.2249C0.609778 10.2231 0.192889 9.07822 0 7.84C0 7.26133 0 6.67644 0 6.09778C0.0311111 5.95467 0.0622222 5.81778 0.0933333 5.67467C0.460444 3.82044 1.42489 2.352 2.95556 1.25067C3.91378 0.56 5.00267 0.186667 6.16 0C6.72 0 7.28 0 7.84 0C7.90222 0.0124444 7.95822 0.0311111 8.02044 0.0435556C10.5653 0.491556 12.376 1.88533 13.4524 4.23111C13.7449 4.85956 13.8756 5.53778 14 6.22222C14 6.76356 14 7.29867 14 7.84C13.9813 7.93333 13.9627 8.02044 13.944 8.11378C13.5893 10.08 12.6 11.648 10.9636 12.7991C10.024 13.4587 8.96622 13.8133 7.84 14ZM7 13.3342C10.5404 13.2844 13.328 10.4658 13.328 7.02489C13.328 3.68356 10.7022 0.634667 6.96267 0.665778C3.31644 0.696889 0.703111 3.55911 0.665778 6.84444C0.622222 10.4969 3.49689 13.384 7 13.3342Z" fill="black"/>
<path d="M6.8759 5.8228C7.70346 5.8228 8.10168 6.25835 8.00212 7.07346C7.9399 7.58991 7.73457 8.06902 7.61012 8.57302C7.55412 8.81569 7.48568 9.05213 7.44212 9.30102C7.38612 9.6308 7.52301 9.79258 7.85279 9.81747C7.97723 9.82369 8.10168 9.80502 8.22612 9.81124C8.31323 9.81747 8.45012 9.69302 8.48746 9.8548C8.51857 9.97302 8.47501 10.1037 8.36923 10.1908C7.95235 10.533 6.85724 10.645 6.3719 10.3899C5.99857 10.197 5.82435 9.87347 5.86168 9.44413C5.91146 8.85924 6.13546 8.31791 6.27857 7.75791C6.34079 7.50902 6.43413 7.26013 6.44035 6.9988C6.45279 6.65035 6.32835 6.53213 5.9799 6.53213C5.89901 6.53213 5.8119 6.55702 5.73102 6.5508C5.62524 6.54457 5.46346 6.70013 5.4199 6.51969C5.38879 6.37035 5.44479 6.18991 5.6439 6.12146C6.04835 5.97835 6.44035 5.81035 6.8759 5.8228Z" fill="black"/>
<path d="M8.6126 4.3231C8.6126 4.78977 8.18327 5.17555 7.68549 5.1631C7.20015 5.15066 6.77704 4.75866 6.77082 4.3231C6.7646 3.86888 7.19393 3.47066 7.69793 3.47066C8.20193 3.46443 8.6126 3.85021 8.6126 4.3231Z" fill="black"/>
</svg>
