<svg width="20" height="20" viewBox="0 0 20 20" fill="none" xmlns="http://www.w3.org/2000/svg">
<path d="M9.89455 0C10.3075 0.182839 10.6353 0.294864 10.9265 0.467255C11.1786 0.613978 11.4055 0.79994 11.5986 1.01809C12.6311 2.21496 13.9746 2.5464 15.4958 2.56033C16.9698 2.57368 17.4834 3.06357 17.4869 4.49552C17.4904 6.08244 17.9656 7.38437 19.1001 8.54352C20.2957 9.76244 20.2992 10.2912 19.1152 11.4858C17.9476 12.6641 17.4782 13.9968 17.4846 15.615C17.4881 16.95 16.9482 17.4968 15.6134 17.4823C13.9444 17.4643 12.6049 18.0047 11.4075 19.176C10.2847 20.2789 9.71285 20.2789 8.58946 19.1505C7.39269 17.9501 6.02354 17.4852 4.37193 17.4841C3.04413 17.4841 2.49845 16.9425 2.52058 15.5994C2.54853 13.9283 1.98538 12.6002 0.810741 11.4115C-0.266061 10.3214 -0.271302 9.73632 0.801423 8.66715C2.0145 7.45867 2.5363 6.08244 2.52233 4.3951C2.5101 3.11233 3.05869 2.55394 4.34165 2.57542C6.07828 2.60096 7.50159 2.05592 8.69021 0.793463C9.00877 0.454485 9.48456 0.26294 9.89455 0ZM6.64085 10.0904L9.26151 12.7204L13.3131 8.70662L12.323 7.49814L9.04254 10.8229L7.52838 9.12686L6.64085 10.0904Z" fill="#F2F5EA"/>
</svg>
