<svg width="20" height="20" viewBox="0 0 20 20" fill="none" xmlns="http://www.w3.org/2000/svg">
<path d="M5.03887 0H5.68054C5.83134 0.426057 5.98266 0.852113 6.14629 1.31354C6.0495 1.31927 6.07838 1.32343 6.10244 1.31354C6.27783 1.25164 6.45001 1.17985 6.62754 1.12471C10.2669 -0.00416172 13.6276 0.491083 16.5296 2.94286C19.4005 5.36863 20.5224 8.51697 19.7748 12.1371C18.9727 16.0164 16.505 18.6008 12.5748 19.6184C8.53918 20.663 5.01588 19.5502 2.3476 16.4388C-0.260254 13.3987 -0.630284 9.92935 0.914537 6.27328C1.11078 5.80873 1.36531 5.29319 2.02623 5.60688C2.62085 5.88936 2.42514 6.35651 2.20643 6.8091C1.45782 8.36507 1.27066 10.0105 1.56476 11.684C2.33691 16.0747 6.53076 19.0862 11.069 18.5488C15.5965 18.013 18.8225 14.1665 18.5444 9.63439C18.2792 5.32545 14.4532 1.88006 9.93054 1.9248C8.63062 1.93728 7.36386 2.16826 6.20564 2.83726C7.24087 3.40949 8.22797 3.6696 9.38351 3.34291C9.96102 3.17852 10.6583 3.3221 11.2845 3.42354C14.603 3.95832 17.0365 6.71078 17.1884 10.061C17.3301 13.1823 15.0639 16.1693 11.9304 16.9902C8.64559 17.8507 5.18271 16.3821 3.64217 13.4741C2.10484 10.5739 2.84543 6.97817 5.40676 4.91604C5.62065 4.74593 5.83454 4.57894 6.13452 4.33912C5.49713 4.14248 5.01214 4.0119 4.54532 3.84023C4.0106 3.64619 3.64645 3.26799 3.85713 2.70148C4.19828 1.78278 4.6389 0.898933 5.03887 0ZM8.31834 8.18039H8.34508C8.34508 8.82962 8.29802 9.48093 8.35631 10.127C8.45095 11.1753 9.17551 11.8302 10.2514 11.8739C11.0535 11.9067 11.8555 11.8822 12.655 11.8885C13.1437 11.8926 13.5303 11.7324 13.5234 11.2034C13.5164 10.6743 13.0993 10.5338 12.6293 10.5271C11.9876 10.5203 11.346 10.4995 10.7043 10.5271C9.98882 10.5604 9.68029 10.281 9.70275 9.56885C9.73643 8.52841 9.70756 7.49058 9.71184 6.45067C9.71184 5.97936 9.57388 5.6048 9.01669 5.6048C8.44828 5.6048 8.32743 6.00849 8.32155 6.46212C8.31193 7.03696 8.31834 7.60867 8.31834 8.18039Z" fill="#F2F5EA"/>
</svg>
