<svg width="20" height="20" viewBox="0 0 20 20" fill="none" xmlns="http://www.w3.org/2000/svg">
<path fill-rule="evenodd" clip-rule="evenodd" d="M12.0527 6.76923C11.5004 6.76923 11.0527 6.32151 11.0527 5.76923V0.999995C11.0527 0.447711 11.5004 -4.76837e-06 12.0527 -4.76837e-06H19.0001C19.5523 -4.76837e-06 20.0001 0.447711 20.0001 0.999996V5.76923C20.0001 6.32151 19.5523 6.76923 19.0001 6.76923H12.0527ZM1 0C0.447715 0 0 0.447714 0 0.999999V10.0769C0 10.6292 0.447717 11.0769 1 11.0769H7.94737C8.49965 11.0769 8.94737 10.6292 8.94737 10.0769V1C8.94737 0.447716 8.49965 0 7.94737 0H1ZM12.0527 20C11.5004 20 11.0527 19.5523 11.0527 19V9.92308C11.0527 9.37079 11.5004 8.92308 12.0527 8.92308H19.0001C19.5523 8.92308 20.0001 9.37079 20.0001 9.92308V19C20.0001 19.5523 19.5523 20 19.0001 20H12.0527ZM0 14.2308C0 13.6785 0.447715 13.2308 1 13.2308H7.94737C8.49965 13.2308 8.94737 13.6785 8.94737 14.2308V19C8.94737 19.5523 8.49965 20 7.94737 20H1C0.447717 20 0 19.5523 0 19V14.2308Z" fill="#F2F5EA"/>
</svg>
