<svg width="20" height="20" viewBox="0 0 20 20" fill="none" xmlns="http://www.w3.org/2000/svg">
<path d="M9.99203 20C4.37529 19.9967 -0.00906911 15.5775 -0.000230802 9.92926C0.00860751 4.38101 4.44544 -0.00334301 10.0489 -2.86397e-05C15.6049 0.00328573 20.0092 4.44122 20.0003 10.0287C19.992 15.6062 15.5773 20.0027 9.99203 20ZM12.2696 11.4743C12.2033 11.2699 12.1431 10.9678 12.0116 10.701C11.5962 9.85635 10.872 9.47906 9.96165 9.35919C9.41368 9.28683 9.0607 8.93606 8.99275 8.37648C8.93751 7.91799 9.15847 7.56115 9.56503 7.36394C10.0434 7.13249 10.487 7.23192 10.8278 7.64677C11.104 7.98262 11.4067 8.35991 11.8442 7.98815C12.3325 7.5733 11.8867 7.19381 11.6509 6.8469C11.5439 6.68491 11.3973 6.55295 11.225 6.46354C10.7759 6.25087 10.5709 5.93821 10.5781 5.42725C10.5831 5.07592 10.3903 4.76824 9.97381 4.7815C9.60646 4.79365 9.41313 5.08311 9.42583 5.39687C9.44848 5.95755 9.13693 6.20447 8.71932 6.48729C7.97469 6.99218 7.65761 7.74178 7.82996 8.6455C8.01391 9.60611 8.59116 10.2137 9.54957 10.4435C9.79041 10.4988 10.0395 10.5292 10.2765 10.5999C10.7549 10.7418 11.0046 11.0838 11.0327 11.5743C11.0587 12.0344 10.8482 12.3758 10.4362 12.5758C9.97822 12.7967 9.57719 12.6725 9.23139 12.3283C9.13472 12.2316 9.06125 12.1112 8.969 12.009C8.74473 11.7621 8.48565 11.6174 8.173 11.8433C7.8272 12.0958 7.8968 12.4068 8.09124 12.7194C8.28569 13.0321 8.52046 13.3077 8.84084 13.4773C9.21868 13.6773 9.42141 13.933 9.41589 14.3843C9.41202 14.7356 9.57221 15.0544 9.98927 15.0621C10.4063 15.0698 10.5881 14.7566 10.5803 14.4059C10.5698 13.9142 10.8234 13.6756 11.2045 13.4397C11.884 13.0194 12.2011 12.3592 12.2696 11.4743Z" fill="#F2F5EA"/>
</svg>
