<svg width="20" height="20" viewBox="0 0 20 20" fill="none" xmlns="http://www.w3.org/2000/svg">
<path d="M10.0613 5.05234e-05C15.5054 -0.0175477 20.0523 4.56454 19.9995 10.0789C19.9556 15.5581 15.3734 20.0609 9.88541 19.9994C4.41498 19.9378 -0.00885094 15.4613 1.3298e-05 9.91177C0.00880662 4.42383 4.51173 -0.0087545 10.0613 5.05234e-05ZM10.0085 18.4691C14.6435 18.4691 18.4692 14.6521 18.4692 10.0173C18.4701 8.90096 18.2511 7.79538 17.8245 6.76373C17.398 5.73208 16.7724 4.79458 15.9834 4.0048C15.1944 3.21502 14.2576 2.58843 13.2263 2.16083C12.1951 1.73324 11.0898 1.51302 9.97339 1.51275C5.33848 1.51275 1.5127 5.33851 1.5127 9.96453C1.52147 14.661 5.32086 18.4779 10.0085 18.4691Z" fill="#F2F5EA"/>
<path d="M3.34256 9.64764C3.34256 8.59222 3.35136 7.53689 3.33377 6.48152C3.32163 6.35162 3.34864 6.22105 3.41134 6.10663C3.47403 5.99221 3.56954 5.89918 3.68556 5.8395C5.53249 4.78408 7.36183 3.71996 9.20876 2.66458C9.61332 2.43591 9.67489 2.47109 9.67489 2.94601C9.68368 3.71116 9.6573 4.46751 9.68368 5.23266C9.70127 5.69005 9.55176 5.96263 9.14719 6.18249C8.32047 6.62224 7.52013 7.12353 6.70221 7.57207C6.5827 7.62643 6.48299 7.71653 6.41683 7.82995C6.35067 7.94336 6.32132 8.0745 6.33282 8.2053C6.34162 9.19911 6.32403 10.2017 6.34162 11.1955C6.35408 11.34 6.3209 11.4848 6.24675 11.6094C6.17259 11.7341 6.0612 11.8323 5.92826 11.8903C5.23347 12.2597 4.54746 12.6642 3.86146 13.06C3.36015 13.3502 3.33377 13.3326 3.33377 12.7346C3.34256 11.6968 3.34256 10.6766 3.34256 9.64764Z" fill="#F2F5EA"/>
<path d="M16.6492 9.63891V12.849C16.6492 13.2975 16.5964 13.3239 16.2007 13.104C15.4883 12.6995 14.7847 12.2773 14.0635 11.8816C13.9228 11.8198 13.8053 11.715 13.7278 11.5823C13.6504 11.4495 13.6171 11.2957 13.6325 11.1428C13.6501 10.1578 13.6325 9.18158 13.6413 8.19656C13.6527 8.06688 13.6243 7.93681 13.5599 7.82368C13.4954 7.71055 13.3981 7.61974 13.2808 7.56333C12.4364 7.09721 11.6097 6.5959 10.7654 6.12978C10.6132 6.06015 10.4865 5.94479 10.4029 5.79976C10.3194 5.65473 10.2832 5.48726 10.2993 5.32066C10.3257 4.56432 10.3081 3.79917 10.3081 3.03403C10.3081 2.44478 10.352 2.41839 10.8534 2.69983C12.4364 3.61448 14.0283 4.52034 15.6026 5.44379C16.8779 6.19134 16.6228 5.7692 16.6404 7.25551C16.6579 8.05585 16.6492 8.84738 16.6492 9.63891Z" fill="#F2F5EA"/>
<path d="M10.0172 17.5982C9.90239 17.5496 9.79076 17.4938 9.68301 17.4311C7.81849 16.3669 5.95398 15.2851 4.08065 14.221C3.77284 14.0451 3.72007 13.9307 4.07186 13.7373C4.85461 13.3063 5.62861 12.8578 6.39371 12.4005C6.63997 12.2509 6.83346 12.3301 7.04454 12.4532C7.88885 12.9457 8.75075 13.4207 9.58627 13.9308C9.87649 14.1066 10.0964 14.1154 10.3866 13.9396C11.2133 13.4382 12.0576 12.9721 12.8931 12.4796C13.1922 12.3037 13.4384 12.2861 13.7374 12.4708C14.4235 12.893 15.127 13.2887 15.8218 13.6933C16.288 13.9659 16.288 14.0011 15.8394 14.2562C14.2212 15.1884 12.5971 16.1236 10.9671 17.0617C10.6505 17.2376 10.3338 17.4223 10.0172 17.5982Z" fill="#F2F5EA"/>
</svg>
