<?xml version="1.0" encoding="utf-8"?>
<!-- Generator: Adobe Illustrator 26.0.1, SVG Export Plug-In . SVG Version: 6.00 Build 0)  -->
<svg version="1.1" id="Layer_1" xmlns="http://www.w3.org/2000/svg" xmlns:xlink="http://www.w3.org/1999/xlink" x="0px" y="0px"
	 viewBox="0 0 23 23" style="enable-background:new 0 0 23 23;" xml:space="preserve">
<style type="text/css">
	.st0{fill:#CAA8F5;}
	.st1{fill:#690FAD;}
</style>
<path class="st0" d="M11.5,0L11.5,0C17.9,0,23,5.1,23,11.5l0,0C23,17.9,17.9,23,11.5,23l0,0C5.1,23,0,17.9,0,11.5l0,0
	C0,5.1,5.1,0,11.5,0z"/>
<path class="st1" d="M13.9,17c-0.2,0-0.4-0.1-0.5-0.2c-1.7-1.6-3.5-3.2-5.2-4.8c-0.3-0.3-0.3-0.7,0-1c1.7-1.6,3.4-3.2,5.2-4.8
	c0.3-0.3,0.7-0.3,1,0c0.2,0.1,0.3,0.3,0.4,0.4c0.2,0.2,0.2,0.5,0,0.8c0,0-0.1,0.1-0.1,0.1c-1.3,1.2-2.7,2.5-4,3.7
	c-0.3,0.2-0.3,0.2,0,0.5c1.3,1.2,2.6,2.4,3.9,3.7c0.1,0.1,0.2,0.2,0.3,0.3C15,15.8,15,15.9,15,16C15,16.4,14.3,17,13.9,17z"/>
</svg>
