<svg width="20" height="20" viewBox="0 0 20 20" fill="none" xmlns="http://www.w3.org/2000/svg">
<path d="M7.09796 9.90711C7.09796 7.04164 7.09796 4.17636 7.09796 1.31129C7.09796 0.159421 7.24406 0.0104121 8.36079 0.00568167C9.51301 -0.001414 10.6676 0.0186904 11.8174 0.000359916C12.5544 -0.0120575 12.9034 0.296013 12.9022 1.05229C12.8936 7.01858 12.8936 12.9851 12.9022 18.9517C12.9022 19.711 12.5414 20.0102 11.8098 19.9995C10.599 19.9824 9.38466 19.9777 8.17625 19.9995C7.36532 20.0155 7.08673 19.6241 7.09087 18.8554C7.10979 15.8734 7.09796 12.8903 7.09796 9.90711Z" fill="#F2F5EA"/>
<path d="M14.1957 12.8506C14.1957 10.8402 14.214 8.83447 14.1868 6.8264C14.1755 5.98911 14.5269 5.65088 15.3544 5.67335C16.5374 5.70469 17.7174 5.69523 18.8986 5.67335C19.6237 5.66211 20.0017 5.94003 19.9999 6.70813C19.9905 10.783 19.9905 14.8579 19.9999 18.9328C19.9999 19.682 19.6646 20.0066 18.9234 19.9972C17.7126 19.98 16.4983 19.9747 15.2905 19.9972C14.492 20.0131 14.1797 19.6512 14.188 18.8701C14.2116 16.8668 14.1957 14.8587 14.1957 12.8506Z" fill="#F2F5EA"/>
<path d="M5.80191 15.7356C5.80191 16.8 5.78949 17.8608 5.80664 18.9228C5.81847 19.6625 5.49374 20.009 4.74196 19.9989C3.49984 19.9824 2.26185 19.9853 1.02209 19.9989C0.322361 20.0037 0 19.685 0 18.9807C0.00946381 16.7676 0.00946381 14.5542 0 12.3403C0 11.6834 0.302842 11.3576 0.967083 11.3599C2.23642 11.3647 3.50575 11.3694 4.77508 11.3599C5.476 11.3529 5.80901 11.6686 5.80191 12.3746C5.79244 13.4922 5.80073 14.6139 5.80191 15.7356Z" fill="#F2F5EA"/>
</svg>
