<svg width="24" height="20" viewBox="0 0 24 20" fill="none" xmlns="http://www.w3.org/2000/svg">
<path d="M24 15.3926C22.7336 15.6927 21.4708 16.0109 20.198 16.2826C19.8464 16.3569 19.4691 16.2936 19.0143 16.2936C19.1696 13.4489 18.0978 11.3322 15.4152 10.2593C15.8476 9.28401 16.2637 8.34352 16.7143 7.32755C20.0949 6.99257 22.5156 6.98677 24 10.7487V15.3926Z" fill="#F2F5EA"/>
<path d="M6.20046 16.654C6.20046 16.0979 6.16882 15.5394 6.20632 14.9855C6.34696 12.8851 7.91567 11.1365 10.0153 10.9217C11.3784 10.7796 12.7523 10.7701 14.1172 10.8932C16.4612 11.1121 18.0364 12.8172 18.1606 15.1312C18.2192 16.2099 18.2338 17.299 18.1459 18.3736C18.1213 18.6749 17.7152 19.09 17.3953 19.2021C14.8398 20.0921 12.2104 20.1751 9.55235 19.7577C9.24489 19.7093 8.93842 19.6535 8.63292 19.5905C6.18288 19.0865 6.18347 19.086 6.20046 16.654Z" fill="#F2F5EA"/>
<path d="M0.0281885 15.4419C0.0281885 13.9679 -0.0450606 12.6355 0.0445963 11.3142C0.187579 9.2085 1.81664 7.49355 3.91684 7.28513C5.17965 7.15915 6.46532 7.26191 7.62735 7.26191L8.92591 10.2488C6.30769 11.2904 5.17555 13.4105 5.33729 16.4654L0.0281885 15.4419Z" fill="#F2F5EA"/>
<path d="M12.1969 10.5652C10.2736 10.5745 8.67152 9.01342 8.65335 7.11269C8.63519 5.21197 10.2121 3.64332 12.1588 3.63287C14.1054 3.62242 15.6876 5.1661 15.7005 7.07147C15.7128 8.96291 14.116 10.5536 12.1969 10.5652Z" fill="#F2F5EA"/>
<path d="M6.13425 6.97163C4.13777 6.99195 2.52922 5.41401 2.48 3.55102C2.43077 1.677 4.01764 0.047974 5.93677 0.00327153C7.75804 -0.0396893 9.43456 1.47671 9.51133 3.23462C9.52071 3.44943 7.44805 6.65988 7.24002 6.71271C6.82162 6.82417 6.39795 6.91126 6.13425 6.97163Z" fill="#F2F5EA"/>
<path d="M21.5236 3.44477C21.5664 5.70892 19.3273 7.45058 17.1258 6.82474C16.838 6.74288 16.5866 6.405 16.4009 6.13098C15.8754 5.35421 15.3758 4.56078 14.9019 3.75072C14.7373 3.46799 14.5556 3.10167 14.6025 2.80791C14.8697 1.11502 16.5298 -0.133168 18.2356 0.0113892C20.0733 0.166396 21.4897 1.64564 21.5236 3.44477Z" fill="#F2F5EA"/>
</svg>
