<svg width="16" height="20" viewBox="0 0 16 20" fill="none" xmlns="http://www.w3.org/2000/svg">
<path fill-rule="evenodd" clip-rule="evenodd" d="M5.80011 3.22759C5.70119 2.96454 5.64702 2.67916 5.64702 2.38097C5.64702 1.066 6.70047 0 7.99996 0C9.29946 0 10.3529 1.066 10.3529 2.38097C10.3529 2.67916 10.2987 2.96454 10.1998 3.2276C12.4871 4.07403 14.1176 6.27483 14.1176 8.85645V14.2851H1.8823V8.85644C1.8823 6.27482 3.51276 4.07402 5.80011 3.22759ZM6.71325 2.97027C6.63295 2.7908 6.58825 2.59154 6.58825 2.38171C6.58825 1.59272 7.22032 0.953125 8.00001 0.953125C8.77971 0.953125 9.41178 1.59272 9.41178 2.38171C9.41178 2.59154 9.36707 2.79081 9.28677 2.9703C8.9086 2.8956 8.51767 2.85645 8.11759 2.85645H7.8823C7.48227 2.85645 7.09137 2.8956 6.71325 2.97027ZM1.8823 13.333V14.2852H14.1177V13.333C14.1177 14.0949 14.7452 14.2854 15.0589 14.2854H15.0221C15.5642 14.2972 16 14.7403 16 15.2852V17.0947C16 17.647 15.5523 18.0947 15 18.0947H10.3061C10.0884 19.1819 9.13867 20.0002 8.00008 20.0002C6.86149 20.0002 5.91179 19.1819 5.69406 18.0947H1C0.447715 18.0947 0 17.647 0 17.0947V15.2852C0 14.7403 0.435797 14.2972 0.977856 14.2854H0.94112C1.25485 14.2854 1.8823 14.0949 1.8823 13.333ZM6.66824 18.0947H9.33179C9.13826 18.6501 8.61507 19.0481 8.00001 19.0481C7.38496 19.0481 6.86177 18.6501 6.66824 18.0947Z" fill="#06070E"/>
</svg>
