<svg width="200" height="44" viewBox="0 0 200 44" fill="none" xmlns="http://www.w3.org/2000/svg">
<path d="M52.5795 27.1831C52.2178 27.4683 51.8251 27.712 51.4086 27.9093C50.965 28.1182 50.4976 28.2725 50.0166 28.369C49.4579 28.4783 48.8895 28.5307 48.3201 28.5254C47.4154 28.5336 46.5184 28.3584 45.6836 28.0104C44.8968 27.6871 44.1829 27.2098 43.5844 26.6066C42.9858 26.0034 42.5146 25.2866 42.1986 24.4987C41.864 23.6753 41.6948 22.7945 41.7008 21.9062V21.8693C41.6864 20.1182 42.3618 18.4314 43.5816 17.1717C44.1844 16.5562 44.9056 16.0684 45.702 15.7376C46.5665 15.3802 47.495 15.2018 48.4309 15.2135C48.9844 15.2091 49.5371 15.2583 50.0811 15.3605C50.5455 15.4488 50.9996 15.5844 51.4363 15.7651C51.833 15.9318 52.2101 16.1415 52.5609 16.3902C52.9023 16.6332 53.223 16.9038 53.5197 17.1993L51.7129 19.2768C51.2511 18.8527 50.733 18.4939 50.1732 18.2105C49.6243 17.9472 49.0214 17.815 48.4123 17.8245C47.8947 17.8197 47.3821 17.9262 46.9096 18.1369C46.4572 18.3392 46.0521 18.6336 45.7203 19.001C45.3847 19.3752 45.122 19.8086 44.9459 20.2789C44.7593 20.7756 44.6655 21.3023 44.6693 21.8327V21.8693C44.6661 22.4027 44.7598 22.9322 44.9459 23.4323C45.1196 23.9045 45.379 24.3408 45.7111 24.7193C46.0488 25.1003 46.4649 25.4043 46.9311 25.6105C47.3972 25.8167 47.9024 25.9204 48.4123 25.9144C49.06 25.9345 49.7026 25.7956 50.2838 25.5098C50.8367 25.2095 51.3481 24.8387 51.8051 24.4067L53.6119 26.227C53.2924 26.5711 52.9473 26.8907 52.5795 27.1831Z" fill="#690FAD"/>
<path d="M67.3668 24.4527C67.0298 25.2517 66.5379 25.9765 65.9193 26.5854C65.3007 27.1944 64.5676 27.6755 63.7621 28.0013C61.9944 28.7001 60.0259 28.7001 58.2582 28.0013C57.4521 27.6716 56.7167 27.191 56.0918 26.5856C55.4819 25.9893 54.999 25.2763 54.6721 24.4895C54.3308 23.6711 54.1583 22.7925 54.1649 21.9061V21.8693C54.1584 20.9822 54.3341 20.1031 54.6813 19.2862C55.0182 18.4871 55.5101 17.7623 56.1287 17.1534C56.7473 16.5444 57.4804 16.0633 58.286 15.7376C60.0536 15.0388 62.022 15.0388 63.7897 15.7376C64.5958 16.0675 65.3312 16.548 65.9563 17.1533C66.5659 17.7499 67.0487 18.4628 67.376 19.2494C67.7171 20.0679 67.8895 20.9465 67.8831 21.8328V21.8694C67.8894 22.7566 67.7138 23.6357 67.3668 24.4527ZM64.9145 21.8694C64.9176 21.3352 64.8207 20.8052 64.6287 20.3066C64.4467 19.8286 64.1713 19.3915 63.8183 19.0206C63.4654 18.6497 63.042 18.3525 62.5729 18.1463C62.0794 17.9289 61.545 17.8192 61.0055 17.8245C60.4639 17.8173 59.9268 17.9237 59.4291 18.1369C58.9674 18.3371 58.5528 18.6315 58.2121 19.0011C57.8706 19.3743 57.6018 19.8076 57.4193 20.2789C57.2265 20.7742 57.1295 21.3015 57.1333 21.8327V21.8694C57.13 22.4036 57.227 22.9337 57.4193 23.4324C57.6014 23.9089 57.8758 24.345 58.227 24.7157C58.5782 25.0864 58.9992 25.3844 59.466 25.5927C59.9621 25.812 60.4998 25.9218 61.0424 25.9144C61.5809 25.9199 62.1146 25.8134 62.6096 25.6018C63.0749 25.4034 63.4928 25.1088 63.8357 24.7376C64.1772 24.3644 64.446 23.9311 64.6287 23.4598C64.8213 22.9645 64.9182 22.4374 64.9145 21.9062V21.8694Z" fill="#690FAD"/>
<path d="M77.1022 28.3047L74.3364 24.1861H72.1053V28.3047H69.2659V15.4342H75.166C76.7025 15.4342 77.898 15.8081 78.7524 16.5559C79.6065 17.3036 80.0336 18.3454 80.0338 19.6814V19.7182C80.0338 20.7602 79.7787 21.609 79.2686 22.2648C78.7523 22.9251 78.0585 23.4257 77.268 23.7081L80.4209 28.3047H77.1022ZM77.1575 19.8286C77.1575 19.2157 76.9608 18.756 76.5675 18.4495C76.1739 18.1434 75.6269 17.9901 74.9265 17.9899H72.1053V21.6855H74.9817C75.6823 21.6855 76.2201 21.52 76.595 21.189C76.7811 21.0236 76.9281 20.819 77.0254 20.5901C77.1226 20.3612 77.1678 20.1136 77.1575 19.8652V19.8286Z" fill="#690FAD"/>
<path d="M81.4534 28.3047V15.4342H91.1704V17.9531H84.256V20.564H90.3408V23.0829H84.256V25.7856H91.2626V28.3047L81.4534 28.3047Z" fill="#690FAD"/>
<path d="M104.035 24.4071C103.712 25.1779 103.232 25.873 102.624 26.4479C101.994 27.0375 101.256 27.4995 100.449 27.8083C99.5637 28.147 98.6222 28.3155 97.6741 28.3047H92.6409V15.4354H97.674C98.6212 15.4247 99.5622 15.5899 100.449 15.9225C101.256 16.2259 101.995 16.6852 102.624 17.2739C103.23 17.8466 103.71 18.5382 104.035 19.3053C104.371 20.1056 104.54 20.9657 104.532 21.8333V21.8699C104.54 22.7405 104.37 23.6035 104.035 24.4071ZM101.564 21.8699C101.57 21.3357 101.473 20.8053 101.278 20.3074C101.1 19.8478 100.83 19.4289 100.486 19.0755C100.138 18.726 99.72 18.4535 99.2596 18.2757C98.754 18.081 98.2159 17.9843 97.674 17.9908H95.48V25.7492H97.674C98.2151 25.7556 98.7526 25.6621 99.2596 25.4734C99.7207 25.3013 100.139 25.0316 100.486 24.6829C100.827 24.3343 101.097 23.922 101.278 23.4695C101.475 22.9721 101.572 22.4412 101.564 21.9067V21.8699Z" fill="#06070E"/>
<path d="M106.819 28.3047V15.4354H109.658V28.3047H106.819Z" fill="#06070E"/>
<path d="M120.351 28.3047L117.586 24.1865H115.355V28.3047H112.516V15.4354H118.415C119.952 15.4354 121.147 15.8092 122.001 16.5568C122.855 17.3045 123.282 18.3463 123.283 19.6822V19.719C123.283 20.761 123.028 21.6097 122.518 22.2653C122.001 22.9256 121.308 23.4261 120.517 23.7085L123.67 28.3047H120.351ZM120.406 19.8292C120.406 19.2165 120.21 18.7569 119.816 18.4505C119.423 18.1443 118.876 17.9911 118.176 17.9909H115.355V21.6861H118.231C118.932 21.6861 119.469 21.5207 119.844 21.1898C120.03 21.0244 120.177 20.8198 120.274 20.5909C120.372 20.362 120.417 20.1144 120.406 19.866V19.8292Z" fill="#06070E"/>
<path d="M125.476 28.3047V15.4354H135.192V17.954H128.279V20.5647H134.363V23.0833H128.279V25.786H135.285V28.3047H125.476Z" fill="#06070E"/>
<path d="M147.766 27.1833C147.404 27.4685 147.012 27.712 146.595 27.9094C146.152 28.1183 145.684 28.2726 145.203 28.3691C144.645 28.4783 144.076 28.5306 143.507 28.5253C142.603 28.5334 141.706 28.3583 140.871 28.0105C140.084 27.6873 139.37 27.21 138.772 26.6069C138.173 26.0038 137.702 25.287 137.386 24.4991C137.052 23.6759 136.883 22.7951 136.889 21.9068V21.87C136.874 20.1191 137.549 18.4325 138.769 17.1727C139.372 16.5573 140.093 16.0696 140.889 15.7389C141.754 15.3814 142.682 15.2031 143.618 15.2148C144.171 15.2104 144.724 15.2596 145.268 15.3618C145.732 15.4501 146.186 15.5857 146.623 15.7663C147.02 15.9331 147.397 16.1428 147.748 16.3915C148.089 16.6344 148.41 16.9049 148.706 17.2004L146.9 19.2779C146.438 18.8537 145.92 18.4948 145.36 18.2116C144.811 17.9482 144.209 17.816 143.599 17.8254C143.082 17.8206 142.569 17.9272 142.097 18.138C141.644 18.3403 141.239 18.6346 140.908 19.0021C140.572 19.3761 140.309 19.8095 140.133 20.2798C139.947 20.7764 139.853 21.303 139.857 21.8334V21.87C139.854 22.4033 139.947 22.9328 140.133 23.4328C140.307 23.905 140.566 24.3413 140.898 24.7198C141.236 25.1007 141.652 25.4047 142.118 25.6109C142.584 25.8171 143.09 25.9207 143.599 25.9146C144.247 25.9348 144.89 25.796 145.471 25.5103C146.024 25.2098 146.535 24.839 146.992 24.4072L148.799 26.2272C148.479 26.5714 148.134 26.891 147.766 27.1833Z" fill="#06070E"/>
<path d="M156.542 18.046V28.3048H153.703V18.046H149.775V15.4354H160.469V18.046H156.542Z" fill="#06070E"/>
<path d="M162.405 28.3047V15.4354H165.244V28.3047H162.405Z" fill="#06070E"/>
<path d="M180.731 24.453C180.394 25.2519 179.902 25.9766 179.283 26.5855C178.665 27.1943 177.932 27.6755 177.126 28.0012C175.359 28.6998 173.391 28.6998 171.623 28.0012C170.817 27.6717 170.081 27.1912 169.457 26.5857C168.847 25.9894 168.364 25.2766 168.037 24.4899C167.696 23.6715 167.523 22.793 167.53 21.9067V21.8699C167.523 20.9828 167.699 20.1038 168.046 19.287C168.383 18.488 168.875 17.7633 169.493 17.1544C170.112 16.5455 170.845 16.0644 171.65 15.7388C173.418 15.04 175.386 15.04 177.154 15.7388C177.96 16.0685 178.695 16.549 179.32 17.1543C179.93 17.7507 180.413 18.4635 180.74 19.2501C181.081 20.0686 181.253 20.947 181.247 21.8333V21.8699C181.253 22.757 181.078 23.6361 180.731 24.453ZM178.278 21.8699C178.282 21.3358 178.185 20.8059 177.993 20.3073C177.811 19.8293 177.535 19.3921 177.182 19.0213C176.83 18.6504 176.406 18.3532 175.937 18.147C175.444 17.9297 174.909 17.82 174.37 17.8253C173.828 17.8181 173.291 17.9246 172.794 18.1379C172.332 18.3381 171.918 18.6324 171.577 19.002C171.235 19.3751 170.967 19.8084 170.784 20.2797C170.591 20.7749 170.494 21.3021 170.498 21.8333V21.8699C170.495 22.404 170.592 22.9341 170.784 23.4327C170.966 23.9092 171.241 24.3452 171.592 24.7159C171.943 25.0866 172.364 25.3845 172.831 25.5928C173.327 25.8121 173.864 25.9219 174.407 25.9145C174.945 25.92 175.479 25.8136 175.974 25.6021C176.439 25.4036 176.857 25.1091 177.2 24.738C177.541 24.3647 177.81 23.9315 177.993 23.4603C178.185 22.965 178.282 22.4379 178.278 21.9067L178.278 21.8699Z" fill="#06070E"/>
<path d="M192.456 28.3047L186.206 20.1235V28.3047H183.404V15.4354H186.022L192.069 23.3591V15.4354H194.871V28.3047H192.456Z" fill="#06070E"/>
<path d="M42.0266 31.8716V31.3978H42.4594V31.8716H42.0266ZM42.0692 36.4191V32.8121H42.4168V36.4191H42.0692Z" fill="#06070E"/>
<path d="M47.4171 36.4192V34.2762C47.4333 33.9514 47.3271 33.6323 47.1192 33.3817C47.0108 33.2667 46.8784 33.177 46.7313 33.1189C46.5841 33.0609 46.426 33.0358 46.2681 33.0457C46.0978 33.0438 45.9289 33.0763 45.7716 33.1411C45.6231 33.2029 45.4881 33.293 45.3743 33.4064C45.2589 33.5225 45.1685 33.6609 45.1085 33.813C45.0432 33.9785 45.0106 34.155 45.0125 34.3328V36.4191H44.665V32.8122H45.0125V33.4841C45.1366 33.2708 45.3061 33.0873 45.509 32.9465C45.7491 32.7913 46.0317 32.7147 46.3176 32.7274C46.5261 32.7241 46.7333 32.7614 46.9276 32.8371C47.1005 32.9056 47.2565 33.0105 47.385 33.1447C47.512 33.2796 47.6087 33.4399 47.6688 33.615C47.7344 33.8074 47.7668 34.0095 47.7645 34.2127V36.4192L47.4171 36.4192Z" fill="#06070E"/>
<path d="M52.2149 35.8724C52.1516 36.0011 52.0608 36.1143 51.9489 36.2041C51.8307 36.2985 51.696 36.3702 51.5516 36.4158C51.3935 36.4662 51.2284 36.4911 51.0624 36.4898C50.7908 36.4886 50.5217 36.4385 50.2681 36.3418C50.0195 36.2522 49.7872 36.1231 49.58 35.9595L49.7856 35.6837C49.9756 35.8298 50.1859 35.9477 50.4099 36.0337C50.6249 36.1159 50.8534 36.1578 51.0837 36.1576C51.305 36.165 51.5227 36.1006 51.7042 35.9741C51.7847 35.9181 51.8498 35.8429 51.8938 35.7554C51.9378 35.6679 51.9591 35.5708 51.9559 35.473V35.4587C51.9583 35.3635 51.9311 35.2698 51.8779 35.1906C51.8211 35.1109 51.7487 35.0437 51.665 34.9929C51.5695 34.9338 51.4671 34.8865 51.3602 34.8518C51.2467 34.8143 51.1261 34.7766 50.9984 34.7389C50.8518 34.6966 50.704 34.6519 50.5551 34.6047C50.4146 34.5615 50.28 34.501 50.1545 34.4247C50.0403 34.3558 49.9423 34.2631 49.8672 34.153C49.7905 34.0331 49.7521 33.8928 49.7572 33.7507V33.7367C49.7554 33.5988 49.7857 33.4623 49.8459 33.338C49.9051 33.2178 49.9884 33.1109 50.0906 33.0239C50.2012 32.9308 50.3289 32.8601 50.4666 32.8157C50.6222 32.7648 50.7851 32.7397 50.9488 32.7415C51.1765 32.7431 51.4025 32.7797 51.619 32.85C51.8372 32.9169 52.0441 33.0162 52.2326 33.1446L52.0481 33.4346C51.8812 33.3256 51.7013 33.2376 51.5127 33.1729C51.3269 33.108 51.1315 33.0745 50.9346 33.0739C50.7199 33.0627 50.5081 33.1264 50.3354 33.2539C50.2655 33.3059 50.2088 33.3736 50.17 33.4514C50.1312 33.5293 50.1113 33.6151 50.1119 33.7021V33.7163C50.11 33.8093 50.14 33.9001 50.1971 33.9737C50.2581 34.0505 50.334 34.1141 50.4203 34.1609C50.5231 34.2172 50.6313 34.2633 50.7432 34.2984C50.866 34.3385 50.9913 34.3773 51.119 34.4149C51.2654 34.4573 51.4096 34.5033 51.5516 34.5526C51.6872 34.5989 51.816 34.663 51.9346 34.7433C52.0438 34.8165 52.1367 34.9114 52.2076 35.022C52.2797 35.1435 52.3155 35.283 52.3106 35.4242V35.4384C52.3128 35.5885 52.2801 35.7371 52.2149 35.8724Z" fill="#06070E"/>
<path d="M57.7397 35.4042C57.6458 35.6262 57.5098 35.828 57.3391 35.9985C57.1773 36.1587 56.9858 36.286 56.7753 36.3733C56.4142 36.524 56.0119 36.5453 55.6368 36.4334C55.4924 36.3895 55.3551 36.3252 55.229 36.2424C55.1098 36.1635 55.0004 36.0709 54.9028 35.9666C54.8077 35.8654 54.7211 35.7566 54.6438 35.6414V37.5508H54.2964V32.8122H54.6438V33.6185C54.7215 33.4981 54.8093 33.3845 54.9063 33.279C55.0044 33.1718 55.1152 33.0768 55.2362 32.9962C55.3616 32.9137 55.4974 32.8482 55.6402 32.8017C55.7995 32.7506 55.9659 32.7256 56.1332 32.7275C56.3534 32.728 56.5715 32.7712 56.7752 32.8546C56.9854 32.9395 57.1769 33.0645 57.3391 33.2225C57.5102 33.3912 57.6463 33.5919 57.7397 33.8131C57.8446 34.0626 57.8965 34.3311 57.8922 34.6017V34.6156C57.8966 34.8862 57.8447 35.1547 57.7397 35.4042ZM57.5235 34.6156C57.5263 34.3959 57.4877 34.1776 57.4097 33.9721C57.3405 33.7893 57.2353 33.6221 57.1003 33.4806C56.9707 33.3471 56.8155 33.241 56.6439 33.1687C56.4722 33.0964 56.2878 33.0593 56.1015 33.0597C55.912 33.0597 55.7245 33.0982 55.5505 33.1729C55.3738 33.2478 55.2133 33.3559 55.0776 33.4913C54.9376 33.6318 54.8254 33.7973 54.747 33.9792C54.6621 34.1781 54.6198 34.3925 54.6227 34.6087V34.6229C54.62 34.8402 54.6623 35.0557 54.747 35.2559C54.8991 35.618 55.1876 35.9062 55.5505 36.0585C55.7245 36.1333 55.912 36.1718 56.1015 36.1717C56.2927 36.1732 56.4824 36.1372 56.6597 36.0657C56.8298 35.9969 56.9835 35.8932 57.111 35.7615C57.2436 35.6221 57.3465 35.4573 57.4132 35.2771C57.4895 35.07 57.5269 34.8506 57.5235 34.6299V34.6156Z" fill="#06070E"/>
<path d="M59.864 31.8716V31.3978H60.2968V31.8716H59.864ZM59.9066 36.4191V32.8121H60.2542V36.4191H59.9066Z" fill="#06070E"/>
<path d="M64.4172 33.1376C64.2128 33.1369 64.0102 33.1765 63.8212 33.2543C63.6315 33.3326 63.461 33.4508 63.3212 33.6008C63.1704 33.765 63.0535 33.9572 62.9772 34.1665C62.888 34.4149 62.8447 34.6773 62.8495 34.9411V36.4192H62.5022V32.8122H62.8497V33.8378C62.9201 33.6784 63.0107 33.5287 63.1192 33.3922C63.2247 33.2585 63.349 33.1406 63.4881 33.0422C63.6254 32.9454 63.7775 32.8713 63.9385 32.8228C64.1051 32.7729 64.2787 32.7502 64.4525 32.7556V33.1375L64.4172 33.1376Z" fill="#06070E"/>
<path d="M66.2256 31.8716V31.3978H66.6584V31.8716H66.2256ZM66.2682 36.4191V32.8121H66.6158V36.4191H66.2682Z" fill="#06070E"/>
<path d="M71.616 36.4192V34.2762C71.6322 33.9514 71.5259 33.6323 71.3181 33.3817C71.2097 33.2667 71.0772 33.177 70.9301 33.1189C70.783 33.0609 70.6249 33.0359 70.4669 33.0457C70.2967 33.0438 70.1278 33.0763 69.9705 33.1411C69.822 33.2029 69.687 33.293 69.5732 33.4064C69.4578 33.5225 69.3674 33.6609 69.3074 33.813C69.2421 33.9785 69.2095 34.155 69.2115 34.3328V36.4191H68.864V32.8122H69.2115V33.4841C69.3356 33.2708 69.505 33.0873 69.708 32.9465C69.948 32.7913 70.2307 32.7147 70.5165 32.7274C70.7251 32.7241 70.9323 32.7614 71.1265 32.8371C71.2994 32.9056 71.4555 33.0105 71.584 33.1447C71.711 33.2796 71.8077 33.4399 71.8677 33.615C71.9334 33.8074 71.9657 34.0095 71.9635 34.2127V36.4192L71.616 36.4192Z" fill="#06070E"/>
<path d="M77.3214 36.589C77.2398 36.7922 77.1135 36.9747 76.9519 37.1228C76.7879 37.2697 76.5955 37.3816 76.3866 37.4518C76.1577 37.5289 75.9175 37.5672 75.6759 37.5649C75.0748 37.5682 74.4897 37.3716 74.0132 37.0061L74.2189 36.7233C74.6348 37.0542 75.1513 37.2337 75.6833 37.2325C75.8777 37.2347 76.0711 37.205 76.2558 37.1446C76.4239 37.0905 76.5778 36.9996 76.7064 36.8787C76.8349 36.7578 76.9348 36.6099 76.9987 36.4456C77.0734 36.2524 77.1097 36.0464 77.1054 35.8393V35.3158C77.0247 35.4293 76.9346 35.5358 76.8358 35.6341C76.735 35.7345 76.6232 35.8235 76.5026 35.8993C76.3747 35.9794 76.2362 36.0413 76.0911 36.0832C75.9298 36.1294 75.7627 36.1521 75.5948 36.1504C75.1527 36.1487 74.7269 35.9837 74.3997 35.6872C74.2349 35.5364 74.1012 35.355 74.006 35.1532C73.9042 34.9339 73.8533 34.6946 73.8571 34.453V34.439C73.8538 34.1952 73.9047 33.9536 74.006 33.7317C74.0999 33.5271 74.2338 33.3431 74.3997 33.1906C74.6256 32.9871 74.8996 32.844 75.1961 32.7747C75.4925 32.7055 75.8018 32.7123 76.0948 32.7946C76.2401 32.8358 76.3795 32.8953 76.5097 32.9715C76.6311 33.0434 76.7431 33.1301 76.8431 33.2296C76.9383 33.3239 77.026 33.4256 77.1054 33.5336V32.8122H77.453V35.8606C77.4575 36.1097 77.4128 36.3571 77.3214 36.589ZM77.1267 34.4318C77.1293 34.2358 77.0854 34.0419 76.9987 33.866C76.9162 33.7 76.8013 33.5521 76.6607 33.4311C76.5195 33.31 76.3568 33.2165 76.181 33.1553C76.003 33.0919 75.8153 33.0595 75.6263 33.0596C75.4419 33.0587 75.2589 33.0912 75.0861 33.1553C74.9203 33.2159 74.768 33.3084 74.6381 33.4276C74.5085 33.5477 74.4056 33.6934 74.3359 33.8555C74.2599 34.0355 74.2224 34.2294 74.2257 34.4247V34.439C74.2236 34.6311 74.2623 34.8215 74.3394 34.9976C74.4111 35.1615 74.5151 35.3095 74.6453 35.4327C74.9119 35.6799 75.2623 35.8175 75.6263 35.8181C75.8157 35.8182 76.0035 35.7846 76.181 35.719C76.3566 35.6557 76.5191 35.561 76.6607 35.4397C76.8007 35.3195 76.9156 35.1729 76.9987 35.0083C77.0857 34.8338 77.1296 34.641 77.1267 34.4461L77.1267 34.4318Z" fill="#06070E"/>
<path d="M87.7794 36.4191V34.2762C87.8003 33.9488 87.6993 33.6252 87.4958 33.3674C87.3966 33.259 87.2746 33.1739 87.1384 33.1183C87.0023 33.0626 86.8554 33.0378 86.7085 33.0457C86.5589 33.0453 86.4108 33.0741 86.2724 33.1306C86.1343 33.1861 86.0097 33.2705 85.9071 33.3781C85.7986 33.4935 85.7142 33.6293 85.6589 33.7776C85.5948 33.9507 85.5635 34.1341 85.5667 34.3186V36.4191H85.219V34.2549C85.2378 33.9343 85.1368 33.6182 84.9354 33.3675C84.8386 33.26 84.719 33.1754 84.5853 33.1198C84.4516 33.0641 84.3071 33.0388 84.1624 33.0457C84.0056 33.0448 83.8505 33.0786 83.7083 33.1446C83.5675 33.21 83.4419 33.304 83.3396 33.4204C83.2338 33.5413 83.1509 33.6804 83.0948 33.8308C83.0344 33.9937 83.0043 34.1662 83.0061 34.3399V36.4192H82.6587V32.8121H83.0061V33.4558C83.0639 33.3601 83.1292 33.2691 83.2013 33.1836C83.2752 33.0957 83.3598 33.0173 83.453 32.9502C83.5536 32.8788 83.665 32.8238 83.7829 32.7874C83.922 32.7454 84.0667 32.7252 84.212 32.7274C84.3575 32.7258 84.5024 32.7473 84.6411 32.7911C84.7638 32.8298 84.8798 32.887 84.9851 32.9607C85.083 33.0302 85.1702 33.1136 85.2439 33.2083C85.316 33.301 85.379 33.4005 85.4319 33.5053C85.4913 33.4025 85.5602 33.3054 85.6376 33.2153C85.7194 33.1197 85.8136 33.0352 85.9176 32.9642C86.0288 32.8888 86.1507 32.8305 86.2793 32.7911C86.4276 32.7467 86.5819 32.7252 86.7367 32.7274C86.9349 32.7246 87.1316 32.7619 87.3149 32.8371C87.4815 32.906 87.6314 33.0097 87.7545 33.1411C87.8793 33.2778 87.9735 33.4393 88.0311 33.615C88.097 33.8145 88.1294 34.0236 88.1269 34.2337V36.4192L87.7794 36.4191Z" fill="#06070E"/>
<path d="M93.6127 35.3371C93.4302 35.7899 93.0779 36.154 92.6305 36.352C92.3959 36.455 92.142 36.5068 91.8857 36.5041C91.6306 36.5071 91.3778 36.4552 91.1445 36.352C90.9255 36.2545 90.7269 36.1165 90.5594 35.9453C90.393 35.7742 90.2617 35.5725 90.1729 35.3513C90.0801 35.1221 90.0332 34.877 90.0346 34.6299V34.6156C90.0314 34.123 90.221 33.6486 90.5631 33.2932C90.7317 33.1182 90.9328 32.9776 91.1553 32.8793C91.3899 32.7765 91.6438 32.7247 91.9 32.7274C92.1551 32.7245 92.4078 32.7763 92.641 32.8793C92.86 32.9769 93.0586 33.1149 93.2262 33.286C93.3925 33.4572 93.5238 33.6591 93.6127 33.8803C93.7055 34.1095 93.7524 34.3546 93.751 34.6017V34.6157C93.7524 34.8628 93.7055 35.1079 93.6127 35.3371ZM93.3823 34.6156C93.3836 34.4072 93.3449 34.2005 93.2682 34.0066C93.1959 33.8222 93.0881 33.6537 92.9511 33.5104C92.8156 33.3695 92.6533 33.257 92.4737 33.1795C92.2882 33.0991 92.0879 33.0583 91.8857 33.0597C91.6808 33.0579 91.4779 33.0999 91.2906 33.183C91.1133 33.2611 90.9534 33.3736 90.8201 33.5139C90.6873 33.6558 90.5833 33.822 90.5138 34.0033C90.4396 34.1941 90.4021 34.397 90.4033 34.6016V34.6156C90.4019 34.824 90.4406 35.0307 90.5173 35.2246C90.5897 35.4091 90.6974 35.5777 90.8345 35.7211C90.97 35.862 91.1323 35.9745 91.312 36.052C91.4975 36.1322 91.6977 36.173 91.8999 36.1716C92.1048 36.1735 92.3077 36.1316 92.4948 36.0485C92.6721 35.9705 92.832 35.858 92.9651 35.7176C93.098 35.5758 93.2021 35.4095 93.2716 35.2282C93.3458 35.0374 93.3833 34.8344 93.3821 34.6297L93.3823 34.6156Z" fill="#06070E"/>
<path d="M97.042 36.4476H96.7441L95.12 32.8121H95.5243L96.893 36.0302L98.276 32.8121H98.666L97.042 36.4476Z" fill="#06070E"/>
<path d="M100.553 35.3553C100.632 35.5208 100.741 35.6709 100.873 35.7986C100.999 35.9194 101.148 36.0139 101.31 36.0767C101.475 36.1402 101.65 36.1723 101.826 36.1716C102.076 36.1795 102.325 36.1235 102.548 36.009C102.742 35.9026 102.918 35.7665 103.07 35.6058L103.312 35.8181C103.13 36.0141 102.917 36.18 102.683 36.3095C102.414 36.4472 102.114 36.5142 101.812 36.504C101.579 36.5048 101.348 36.4591 101.133 36.3697C100.92 36.2817 100.726 36.1518 100.565 35.9877C100.397 35.8172 100.266 35.6153 100.177 35.3937C100.08 35.1485 100.031 34.8866 100.035 34.6228V34.6086C100.033 34.3587 100.078 34.1106 100.166 33.8767C100.248 33.6567 100.371 33.454 100.528 33.2789C100.68 33.1101 100.865 32.9731 101.07 32.8758C101.283 32.7758 101.516 32.725 101.751 32.7274C101.989 32.7235 102.224 32.7731 102.439 32.8723C102.64 32.9668 102.817 33.103 102.96 33.2719C103.109 33.4483 103.222 33.651 103.294 33.8695C103.374 34.1101 103.413 34.3622 103.411 34.6156V34.6935C103.41 34.7149 103.408 34.7362 103.404 34.7572H100.404C100.413 34.9645 100.464 35.1677 100.553 35.3553ZM103.042 34.4459C103.029 34.2662 102.991 34.0891 102.932 33.9191C102.876 33.7571 102.791 33.6063 102.683 33.4735C102.575 33.3429 102.44 33.2368 102.288 33.1623C102.123 33.0872 101.944 33.0475 101.763 33.0457C101.582 33.0439 101.402 33.08 101.236 33.1518C101.081 33.2212 100.942 33.321 100.827 33.4453C100.706 33.5766 100.609 33.7272 100.539 33.8907C100.462 34.0667 100.416 34.2545 100.404 34.446L103.042 34.4459Z" fill="#06070E"/>
<path d="M110.425 36.4191V34.2762C110.446 33.9488 110.345 33.6252 110.142 33.3674C110.043 33.259 109.92 33.1739 109.784 33.1183C109.648 33.0626 109.501 33.0378 109.354 33.0457C109.205 33.0453 109.057 33.0741 108.918 33.1306C108.78 33.1861 108.656 33.2705 108.553 33.3781C108.445 33.4935 108.36 33.6293 108.305 33.7776C108.241 33.9507 108.209 34.1341 108.213 34.3186V36.4191H107.865V34.2549C107.884 33.9343 107.783 33.6182 107.581 33.3675C107.484 33.26 107.365 33.1754 107.231 33.1198C107.097 33.0641 106.953 33.0388 106.808 33.0457C106.651 33.0448 106.496 33.0786 106.354 33.1446C106.213 33.2101 106.088 33.304 105.985 33.4204C105.88 33.5413 105.797 33.6804 105.741 33.8308C105.68 33.9937 105.65 34.1662 105.652 34.3399V36.4192H105.305V32.8121H105.652V33.4558C105.71 33.3601 105.775 33.2691 105.847 33.1836C105.921 33.0957 106.006 33.0173 106.099 32.9502C106.199 32.8788 106.311 32.8238 106.429 32.7874C106.568 32.7454 106.713 32.7252 106.858 32.7274C107.003 32.7258 107.148 32.7473 107.287 32.7911C107.41 32.8298 107.526 32.887 107.631 32.9607C107.729 33.0302 107.816 33.1136 107.89 33.2083C107.962 33.301 108.025 33.4005 108.078 33.5053C108.137 33.4025 108.206 33.3054 108.283 33.2153C108.365 33.1197 108.459 33.0352 108.563 32.9642C108.675 32.8888 108.797 32.8305 108.925 32.7911C109.074 32.7467 109.228 32.7252 109.383 32.7274C109.581 32.7246 109.777 32.7619 109.961 32.8371C110.127 32.906 110.277 33.0097 110.4 33.1411C110.525 33.2778 110.619 33.4393 110.677 33.615C110.743 33.8145 110.775 34.0236 110.773 34.2337V36.4192L110.425 36.4191Z" fill="#06070E"/>
<path d="M113.199 35.3553C113.278 35.5208 113.387 35.6709 113.519 35.7986C113.645 35.9194 113.794 36.0139 113.956 36.0767C114.121 36.1402 114.296 36.1723 114.472 36.1716C114.722 36.1795 114.971 36.1235 115.194 36.009C115.388 35.9026 115.564 35.7665 115.716 35.6058L115.958 35.8181C115.775 36.0141 115.563 36.18 115.329 36.3095C115.06 36.4472 114.76 36.5142 114.458 36.504C114.225 36.5048 113.994 36.4591 113.779 36.3697C113.566 36.2817 113.372 36.1518 113.211 35.9877C113.043 35.8172 112.912 35.6153 112.823 35.3937C112.726 35.1485 112.677 34.8866 112.681 34.6228V34.6086C112.679 34.3587 112.724 34.1106 112.812 33.8767C112.894 33.6567 113.017 33.454 113.174 33.2789C113.326 33.1101 113.511 32.9731 113.716 32.8758C113.929 32.7758 114.162 32.725 114.397 32.7274C114.635 32.7235 114.87 32.7731 115.085 32.8723C115.286 32.9668 115.463 33.103 115.606 33.2719C115.754 33.4483 115.868 33.651 115.94 33.8695C116.02 34.1101 116.059 34.3622 116.057 34.6156V34.6935C116.056 34.7149 116.054 34.7362 116.05 34.7572H113.05C113.059 34.9645 113.11 35.1677 113.199 35.3553ZM115.688 34.4459C115.675 34.2662 115.637 34.0891 115.578 33.9191C115.521 33.7571 115.437 33.6063 115.329 33.4735C115.221 33.3429 115.086 33.2368 114.934 33.1623C114.769 33.0872 114.59 33.0475 114.409 33.0457C114.228 33.0439 114.048 33.08 113.882 33.1518C113.727 33.2212 113.588 33.321 113.473 33.4453C113.352 33.5766 113.255 33.7272 113.185 33.8907C113.108 34.0667 113.062 34.2545 113.05 34.446L115.688 34.4459Z" fill="#06070E"/>
<path d="M120.702 36.4192V34.2762C120.718 33.9514 120.612 33.6323 120.404 33.3816C120.296 33.2667 120.163 33.177 120.016 33.1189C119.869 33.0609 119.711 33.0358 119.553 33.0457C119.383 33.0438 119.214 33.0763 119.057 33.1411C118.908 33.2029 118.773 33.293 118.659 33.4064C118.544 33.5225 118.454 33.6609 118.394 33.813C118.328 33.9785 118.296 34.155 118.298 34.3328V36.4191H117.95V32.8122H118.298V33.4841C118.422 33.2708 118.591 33.0874 118.794 32.9465C119.034 32.7913 119.317 32.7147 119.603 32.7274C119.811 32.7241 120.018 32.7614 120.213 32.8371C120.386 32.9056 120.542 33.0105 120.67 33.1447C120.797 33.2796 120.894 33.4399 120.954 33.615C121.02 33.8074 121.052 34.0095 121.05 34.2127V36.4192L120.702 36.4192Z" fill="#06070E"/>
<path d="M124.692 36.4512C124.59 36.4733 124.487 36.484 124.383 36.4829C124.249 36.484 124.115 36.4649 123.986 36.4265C123.865 36.3907 123.753 36.3279 123.66 36.2427C123.566 36.1575 123.493 36.0522 123.447 35.9349C123.392 35.7941 123.365 35.6438 123.369 35.4928V33.1306H122.844V32.8121H123.369V31.6594H123.716V32.8121H124.986V33.1306H123.716V35.452C123.705 35.552 123.718 35.6532 123.753 35.7476C123.788 35.8419 123.845 35.9268 123.919 35.9954C124.07 36.104 124.254 36.1586 124.44 36.1504C124.526 36.1509 124.611 36.142 124.695 36.1238C124.79 36.1012 124.883 36.0699 124.972 36.0303V36.3555C124.882 36.3964 124.788 36.4285 124.692 36.4512Z" fill="#06070E"/>
<path d="M22.1008 5.0892C31.3131 5.0595 39.0075 12.7916 38.9182 22.0967C38.8437 31.3427 31.0899 38.941 21.8031 38.8372C12.5461 38.7333 5.0601 31.1793 5.0751 21.8148C5.08998 12.5541 12.7098 5.07434 22.1008 5.0892ZM22.0115 36.2549C29.8546 36.2549 36.3286 29.814 36.3286 21.9929C36.3301 20.1091 35.9594 18.2435 35.2376 16.5026C34.5158 14.7617 33.4572 13.1798 32.1221 11.847C30.787 10.5143 29.2016 9.45697 27.4566 8.73542C25.7116 8.01387 23.8411 7.64226 21.952 7.64182C14.1088 7.64182 7.63486 14.0976 7.63486 21.9038C7.6497 29.8288 14.079 36.2697 22.0115 36.2549Z" fill="#690FAD"/>
<path d="M10.7304 21.3696C10.7304 19.5886 10.7453 17.8078 10.7155 16.0269C10.6949 15.8077 10.7407 15.5874 10.8468 15.3943C10.9528 15.2012 11.1145 15.0442 11.3108 14.9435C14.4362 13.1625 17.5318 11.3669 20.6571 9.58598C21.3417 9.20011 21.4459 9.25948 21.4459 10.0609C21.4608 11.352 21.4161 12.6283 21.4608 13.9195C21.4905 14.6913 21.2375 15.1513 20.5529 15.5223C19.154 16.2643 17.7996 17.1103 16.4156 17.8671C16.2133 17.9589 16.0446 18.1109 15.9326 18.3023C15.8207 18.4937 15.771 18.715 15.7905 18.9357C15.8054 20.6127 15.7756 22.3046 15.8054 23.9816C15.8265 24.2254 15.7703 24.4697 15.6448 24.68C15.5193 24.8904 15.3308 25.0561 15.1059 25.154C13.9302 25.7773 12.7693 26.46 11.6085 27.1278C10.7601 27.6176 10.7155 27.5879 10.7155 26.5787C10.7304 24.8275 10.7304 23.1059 10.7304 21.3696Z" fill="#690FAD"/>
<path d="M33.248 21.3547V26.7716C33.248 27.5285 33.1587 27.573 32.4889 27.202C31.2834 26.5193 30.0928 25.807 28.8724 25.1391C28.6343 25.0349 28.4355 24.8581 28.3045 24.6341C28.1734 24.4101 28.117 24.1505 28.1432 23.8925C28.173 22.2303 28.1432 20.583 28.1581 18.9208C28.1773 18.702 28.1292 18.4825 28.0202 18.2916C27.9112 18.1007 27.7464 17.9475 27.5479 17.8523C26.1192 17.0657 24.7202 16.2198 23.2914 15.4332C23.0339 15.3157 22.8195 15.1211 22.6781 14.8763C22.5367 14.6316 22.4754 14.349 22.5027 14.0679C22.5473 12.7916 22.5175 11.5004 22.5175 10.2093C22.5175 9.21497 22.592 9.17044 23.4403 9.64536C26.1192 11.1888 28.8129 12.7174 31.4769 14.2757C33.6349 15.5371 33.2033 14.8248 33.2331 17.3329C33.2627 18.6834 33.248 20.0191 33.248 21.3547Z" fill="#690FAD"/>
<path d="M22.0263 34.7857C21.832 34.7037 21.6431 34.6095 21.4608 34.5037C18.3056 32.7079 15.1505 30.8825 11.9805 29.0868C11.4596 28.79 11.3703 28.597 11.9656 28.2706C13.2902 27.5433 14.5999 26.7864 15.8946 26.0147C16.3114 25.7625 16.6388 25.896 16.996 26.1038C18.4247 26.9349 19.8832 27.7363 21.2971 28.5971C21.7882 28.8939 22.1602 28.9087 22.6514 28.6119C24.0503 27.766 25.4791 26.9794 26.8929 26.1483C27.3989 25.8515 27.8157 25.8218 28.3217 26.1335C29.4825 26.8458 30.6731 27.5137 31.8489 28.1963C32.6376 28.6564 32.6376 28.7158 31.8786 29.1462C29.1402 30.7193 26.3919 32.2974 23.6336 33.8804C23.0979 34.1772 22.5621 34.4888 22.0263 34.7857Z" fill="#690FAD"/>
</svg>
